<svg xmlns="http://www.w3.org/2000/svg" viewBox="0 0 100 100" width="100%" height="100%">
  <defs>
    <!-- Background Target Rings -->
    <g id="target">
      <circle cx="50" cy="50" r="48" fill="white" stroke="black" stroke-width="0.5" />
      <circle cx="50" cy="50" r="41" fill="none" stroke="black" stroke-width="0.5" />
      <circle cx="50" cy="50" r="34" fill="none" stroke="black" stroke-width="0.5" />
      <circle cx="50" cy="50" r="27" fill="none" stroke="black" stroke-width="0.5" />
      <circle cx="50" cy="50" r="20" fill="none" stroke="black" stroke-width="0.5" />
    </g>

    <!-- Swirling Gap Curve -->
    <g id="gap-curve">
      <path d="M 50,50 Q 65,75 50,100" fill="none" stroke="black" stroke-width="2.5" />
    </g>

    <!-- Biohazard Mask -->
    <mask id="bio-lobes-mask">
      <rect width="100" height="100" fill="white" />
      <circle cx="50" cy="34" r="14" fill="black" />
      <circle cx="63.86" cy="58" r="14" fill="black" />
      <circle cx="36.14" cy="58" r="14" fill="black" />
      
      <use href="#gap-curve" />
      <use href="#gap-curve" transform="rotate(120 50 50)" />
      <use href="#gap-curve" transform="rotate(240 50 50)" />
    </mask>

    <mask id="bio-ring-mask">
      <rect width="100" height="100" fill="white" />
      <use href="#gap-curve" />
      <use href="#gap-curve" transform="rotate(120 50 50)" />
      <use href="#gap-curve" transform="rotate(240 50 50)" />
    </mask>
    
    <!-- Tapering Curved Legs for Logo 2 (Curving Inward) -->
    <g id="legs-logo2">
      <!-- Left Leg -->
      <path d="M 28,34 Q 35,15 45,8 Q 38,20 32,38 Z" fill="#9c27b0" />
      <!-- Right Leg -->
      <path d="M 72,34 Q 65,15 55,8 Q 62,20 68,38 Z" fill="#9c27b0" />
    </g>
  </defs>

  <use href="#target" />

  <g mask="url(#bio-lobes-mask)">
    <circle cx="50" cy="34" r="22" fill="#9c27b0" />
    <circle cx="63.86" cy="58" r="22" fill="#9c27b0" />
    <circle cx="36.14" cy="58" r="22" fill="#9c27b0" />
  </g>

  <!-- Rotate the legs 3 times -->
  <use href="#legs-logo2" />
  <use href="#legs-logo2" transform="rotate(120 50 50)" />
  <use href="#legs-logo2" transform="rotate(240 50 50)" />

  <circle cx="50" cy="50" r="16" fill="none" stroke="#9c27b0" stroke-width="3" mask="url(#bio-ring-mask)" />

  <g id="center-red-target">
    <circle cx="50" cy="50" r="10" fill="#e53935" stroke="#b71c1c" stroke-width="1" />
    <circle cx="50" cy="50" r="7" fill="none" stroke="#fff" stroke-width="0.5" opacity="0.6" />
    <circle cx="50" cy="50" r="4" fill="none" stroke="#fff" stroke-width="0.5" opacity="0.6" />
    <circle cx="50" cy="50" r="1.5" fill="#fff" opacity="0.8" />
  </g>
</svg>
